<?xml version="1.0" standalone="no"?>
<svg xmlns="http://www.w3.org/2000/svg" viewBox="0 0 66 65" width="66" height="65"><g fill="#6183ff" color="#6183ff" transform="translate(15.434 0) scale(0.7843138) "><svg width="44.0" height="51.0" x="0.0" y="0.0" viewBox="0 0 44 51"><path fill="currentColor" fill-rule="evenodd" d="M21.986 0L44 12.704v25.393L22.029 50.801.014 38.111 0 12.718 21.986 0zM22 7.428L6.43 16.425V34.42l15.599 8.996 15.555-9.01-.014-17.994L22 7.428zm-.001 5.403l10.907 6.302v12.561l-10.907 6.302-10.893-6.288-.015-12.575L22 12.83z"></path></svg></g><path fill="#6183ff" fill-rule="nonzero" d="M1.08 16.75Q0.62 16.75 0.31 16.44Q0 16.13 0 15.67L0 15.67L0 1.10Q0 0.65 0.31 0.32Q0.62 0 1.08 0L1.08 0L6.74 0Q9.31 0 10.72 1.18Q12.12 2.35 12.12 4.34L12.12 4.34Q12.12 5.74 11.46 6.66Q10.80 7.58 9.77 8.04L9.77 8.04Q11.21 8.50 12.13 9.50Q13.06 10.51 13.06 12.05L13.06 12.05Q13.06 14.26 11.57 15.50Q10.08 16.75 6.89 16.75L6.89 16.75L1.08 16.75ZM2.18 7.25L6.17 7.25Q8.30 7.25 9.17 6.53Q10.03 5.81 10.03 4.51L10.03 4.51Q10.03 3.38 9.11 2.71Q8.18 2.04 6.58 2.04L6.58 2.04L2.18 2.04L2.18 7.25ZM2.18 14.71L6.67 14.71Q9 14.71 9.97 13.99Q10.94 13.27 10.94 11.95L10.94 11.95Q10.94 9.22 6.70 9.22L6.70 9.22L2.18 9.22L2.18 14.71ZM21.55 16.99Q18.62 16.99 16.98 15.32Q15.34 13.66 15.34 10.63L15.34 10.63Q15.34 8.93 15.96 7.49Q16.58 6.05 17.88 5.16Q19.18 4.27 21.07 4.27L21.07 4.27Q22.85 4.27 24.14 5.10Q25.44 5.93 26.11 7.31Q26.78 8.69 26.78 10.32L26.78 10.32Q26.78 10.78 26.48 11.09Q26.18 11.40 25.68 11.40L25.68 11.40L17.54 11.40Q17.74 13.08 18.79 14.02Q19.85 14.95 21.74 14.95L21.74 14.95Q22.75 14.95 23.51 14.76Q24.26 14.57 24.98 14.21L24.98 14.21Q25.18 14.11 25.42 14.11L25.42 14.11Q25.80 14.11 26.09 14.38Q26.38 14.64 26.38 15.05L26.38 15.05Q26.38 15.58 25.75 15.94L25.75 15.94Q24.82 16.46 23.90 16.73Q22.99 16.99 21.55 16.99L21.55 16.99ZM17.54 9.62L24.62 9.62Q24.55 8.45 24.01 7.66Q23.47 6.86 22.68 6.49Q21.89 6.12 21.07 6.12L21.07 6.12Q20.26 6.12 19.46 6.49Q18.67 6.86 18.14 7.66Q17.62 8.45 17.54 9.62L17.54 9.62ZM32.78 16.99Q31.73 16.99 30.83 16.56Q29.93 16.13 29.40 15.30Q28.87 14.47 28.87 13.39L28.87 13.39Q28.87 11.62 30.28 10.56Q31.68 9.50 34.39 9.50L34.39 9.50L37.30 9.50L37.30 9.31Q37.30 7.73 36.52 7.03Q35.74 6.34 34.08 6.34L34.08 6.34Q33.17 6.34 32.46 6.48Q31.75 6.62 30.89 6.91L30.89 6.91Q30.70 6.96 30.58 6.96L30.58 6.96Q30.22 6.96 29.95 6.70Q29.69 6.43 29.69 6.05L29.69 6.05Q29.69 5.40 30.31 5.14L30.31 5.14Q32.35 4.27 34.46 4.27L34.46 4.27Q36.12 4.27 37.26 4.94Q38.40 5.62 38.94 6.68Q39.48 7.75 39.48 9L39.48 9L39.48 15.79Q39.48 16.25 39.16 16.56Q38.83 16.87 38.38 16.87L38.38 16.87Q37.92 16.87 37.61 16.56Q37.30 16.25 37.30 15.79L37.30 15.79L37.30 15.17Q35.52 16.99 32.78 16.99L32.78 16.99ZM33.60 15.07Q34.66 15.07 35.64 14.56Q36.62 14.04 37.30 13.27L37.30 13.27L37.30 11.26L34.68 11.26Q31.06 11.26 31.06 13.15L31.06 13.15Q31.06 14.02 31.64 14.54Q32.23 15.07 33.60 15.07L33.60 15.07ZM47.11 16.99Q44.71 16.99 42.74 15.91L42.74 15.91Q42.34 15.62 42.34 15.12L42.34 15.12Q42.34 14.74 42.60 14.45Q42.86 14.16 43.27 14.16L43.27 14.16Q43.49 14.16 43.70 14.26L43.70 14.26Q44.47 14.59 45.24 14.78Q46.01 14.98 46.97 14.98L46.97 14.98Q49.63 14.98 49.63 13.27L49.63 13.27Q49.63 12.72 49.02 12.43Q48.41 12.14 47.02 11.78L47.02 11.78Q45.60 11.45 44.68 11.09Q43.75 10.73 43.09 10.00Q42.43 9.26 42.43 8.06L42.43 8.06Q42.43 6.38 43.64 5.33Q44.86 4.27 47.11 4.27L47.11 4.27Q48.96 4.27 50.59 4.87L50.59 4.87Q50.93 4.97 51.11 5.23Q51.29 5.50 51.29 5.78L51.29 5.78Q51.29 6.17 51.01 6.46Q50.74 6.74 50.33 6.74L50.33 6.74Q50.21 6.74 50.02 6.70L50.02 6.70Q48.62 6.26 47.28 6.26L47.28 6.26Q45.98 6.26 45.25 6.73Q44.52 7.20 44.52 7.94L44.52 7.94Q44.52 8.66 45.19 9Q45.86 9.34 47.28 9.65L47.28 9.65Q48.70 10.01 49.58 10.36Q50.47 10.70 51.11 11.45Q51.74 12.19 51.74 13.44L51.74 13.44Q51.74 14.98 50.53 15.98Q49.32 16.99 47.11 16.99L47.11 16.99ZM60.14 16.99Q57.22 16.99 55.57 15.32Q53.93 13.66 53.93 10.63L53.93 10.63Q53.93 8.93 54.55 7.49Q55.18 6.05 56.47 5.16Q57.77 4.27 59.66 4.27L59.66 4.27Q61.44 4.27 62.74 5.10Q64.03 5.93 64.70 7.31Q65.38 8.69 65.38 10.32L65.38 10.32Q65.38 10.78 65.08 11.09Q64.78 11.40 64.27 11.40L64.27 11.40L56.14 11.40Q56.33 13.08 57.38 14.02Q58.44 14.95 60.34 14.95L60.34 14.95Q61.34 14.95 62.10 14.76Q62.86 14.57 63.58 14.21L63.58 14.21Q63.77 14.11 64.01 14.11L64.01 14.11Q64.39 14.11 64.68 14.38Q64.97 14.64 64.97 15.05L64.97 15.05Q64.97 15.58 64.34 15.94L64.34 15.94Q63.41 16.46 62.50 16.73Q61.58 16.99 60.14 16.99L60.14 16.99ZM56.14 9.62L63.22 9.62Q63.14 8.45 62.60 7.66Q62.06 6.86 61.27 6.49Q60.48 6.12 59.66 6.12L59.66 6.12Q58.85 6.12 58.06 6.49Q57.26 6.86 56.74 7.66Q56.21 8.45 56.14 9.62L56.14 9.62Z" transform="translate(0, 48)"></path></svg>